<svg width="215" height="197" viewBox="0 0 215 197" fill="none" xmlns="http://www.w3.org/2000/svg">
<path d="M58.6338 9.78131e-08C108.255 9.78131e-08 108.115 -0.00429587 114.958 1.78778C124.248 4.22019 134.015 9.37152 142.82 16.4825C149.961 22.2484 155.735 29.1875 163.019 40.7529C164.995 43.8923 165.081 44.1208 164.535 44.7819C164.342 45.0146 164.149 45.2489 163.956 45.4824C163.837 45.602 163.717 45.7209 163.598 45.8405C154.25 57.1939 144.896 71.042 141.462 78.6093C138.064 86.0999 137.357 88.8403 137.353 94.546C137.35 99.355 137.879 101.548 140.071 105.827C141.174 107.977 142.304 109.454 144.598 111.745C148.23 115.371 151.258 117.244 157.05 119.451C162.271 121.439 164.673 122.519 164.673 122.878C164.673 123.029 163.907 123.259 162.971 123.388C157.262 124.18 150.85 125.904 148.147 127.375C144.802 129.195 141.617 133.548 139.895 138.657C138.708 142.176 138.579 147.975 139.6 151.866C140.665 155.924 143.237 161.28 146.305 165.831C151.571 173.642 160.782 181.017 177.889 191.118C181.315 193.141 184.258 194.882 184.427 194.988C184.529 195.053 184.632 195.116 184.734 195.18C183.915 195.18 174.95 190.134 169.252 186.465C168.125 185.738 167.077 185.173 166.923 185.206C166.44 185.313 164.744 184.497 164.434 184.008C164.27 183.751 163.652 183.269 163.061 182.937C162.47 182.604 161.986 182.123 161.986 181.866C161.986 181.609 161.502 181.308 160.911 181.197C160.276 181.077 159.88 180.801 159.941 180.521C159.999 180.261 159.711 179.814 159.301 179.528C155.529 176.886 146.761 168.655 146.761 167.756C146.761 167.495 146.556 167.153 146.304 166.995C145.628 166.571 142.61 162.868 142.351 162.143C142.228 161.798 141.88 161.516 141.577 161.516C141.212 161.516 141.029 161.172 141.029 160.485C141.029 159.918 140.788 159.254 140.492 159.009C140.026 158.623 139.954 158.805 139.954 160.373C139.954 161.976 140.078 162.272 141.029 162.949C141.62 163.369 142.104 164.013 142.104 164.378C142.104 164.743 142.508 165.523 143.001 166.109C143.535 166.743 143.81 167.408 143.68 167.748C143.523 168.157 143.668 168.321 144.185 168.321C144.803 168.321 144.894 168.518 144.801 169.664C144.673 171.244 145.38 172.813 146.334 173.062C147.126 173.269 147.672 175.354 147.112 176.029C146.909 176.273 146.497 177.418 146.196 178.574C145.895 179.731 145.415 181.144 145.13 181.716C144.129 183.724 144.783 184.878 146.115 183.451C146.666 182.861 146.702 182.886 146.731 183.871C146.747 184.446 147.043 185.231 147.388 185.615C147.993 186.289 147.982 186.312 147.058 186.314C146.14 186.317 146.095 186.409 145.935 188.567C145.844 189.805 145.669 190.979 145.548 191.175C145.426 191.372 145.749 192.178 146.266 192.966C146.997 194.082 147.548 194.487 148.753 194.79C149.605 195.005 150.401 195.341 150.522 195.538C150.644 195.735 151.128 195.896 151.597 195.896C152.066 195.896 152.549 196.056 152.67 196.251C152.805 196.47 158.538 196.674 167.737 196.788C172.686 196.848 177.635 196.91 182.585 196.971C138.761 196.852 94.935 196.732 51.1107 196.613C89.6495 196.272 92.3084 196.18 92.3084 195.715C92.3084 195.403 91.9802 195.18 91.5202 195.18C90.9076 195.18 90.8274 195.084 91.162 194.75C91.3984 194.514 91.5919 194.031 91.5919 193.676C91.5919 193.322 91.7646 193.031 91.9752 193.031C92.1859 193.031 92.3069 192.668 92.2439 192.226C92.1558 191.605 91.8577 191.394 90.9442 191.306C90.237 191.238 89.6703 190.95 89.5377 190.59C89.4152 190.258 89.1766 189.894 89.0068 189.779C88.837 189.664 88.8671 189.127 89.072 188.586C89.2941 188.003 89.3185 187.375 89.1329 187.043C88.7174 186.301 89.0405 185.153 89.6631 185.153C89.9361 185.153 90.1589 184.95 90.1589 184.701C90.1589 184.454 90.4878 184.045 90.889 183.795C91.291 183.544 91.5245 183.184 91.4078 182.995C91.2781 182.787 83.5401 182.581 71.6902 182.469C65.1889 182.409 58.6875 182.348 52.1855 182.288C112.146 182.288 108.762 182.4 111.221 180.327C112.925 178.891 113.803 176.95 113.803 174.619C113.803 171.332 112.305 168.887 109.404 167.442C108.794 167.138 108.183 166.834 107.572 166.53C100.819 166.529 94.0652 166.528 87.3124 166.528C73.7587 166.526 66.5781 166.396 65.6195 166.134C64.6802 165.877 63.6506 165.168 62.6317 164.077C61.777 163.161 61.0913 162.29 61.1092 162.143C61.12 162.053 61.1307 161.964 61.1415 161.874C63.9508 164.771 65.0456 165.521 65.9777 165.776C66.8783 166.022 71.7375 166.168 79.0535 166.169C82.9339 166.17 86.8158 166.17 90.6963 166.17C90.4778 165.842 90.2592 165.514 90.0414 165.185C89.393 164.213 89.3944 164.198 90.2205 163.837C90.884 163.547 90.9721 163.363 90.6526 162.941C90.4212 162.636 90.2535 161.011 90.2585 159.111C90.2686 155.407 89.954 154.712 88.2681 154.712C87.2185 154.712 87.2027 154.689 87.8067 154.021C88.4659 153.293 89.944 152.945 92.7562 152.858C93.6919 152.829 94.4578 152.66 94.4578 152.482C94.4578 151.971 66.6197 152.308 64.9925 152.84C64.5447 152.986 64.0969 153.133 63.6491 153.279C65.8738 152.082 67.8857 152.01 87.3202 151.847C94.4334 151.786 101.548 151.728 108.662 151.668C109.167 151.334 109.672 150.999 110.177 150.665C111.01 150.113 112.166 148.914 112.747 147.998C115.236 144.076 113.329 138.433 108.888 136.572C107.951 136.179 101.905 136.089 76.5573 136.089C66.164 136.089 55.7714 136.089 45.3789 136.089C54.4538 135.97 63.5302 135.85 72.6052 135.731C86.487 135.731 90.5172 135.592 90.5172 135.421C90.5172 135.252 89.4303 135.025 88.1019 134.919C85.691 134.725 85.6881 134.724 86.3544 133.988C86.7521 133.548 86.9276 133.005 86.7886 132.644C86.6453 132.27 86.8445 131.731 87.3095 131.237C87.9737 130.531 88.0066 130.335 87.5889 129.591C87.3274 129.127 86.9126 128.618 86.6661 128.461C86.4196 128.303 86.2183 127.799 86.2183 127.341C86.2183 126.404 86.5651 126.079 88.3677 125.326C89.4217 124.885 89.5528 124.714 89.1888 124.249C88.9509 123.946 88.8377 123.383 88.9388 122.999C89.1164 122.32 88.8943 122.303 80.8633 122.391C78.1106 122.42 75.3579 122.451 72.6052 122.48C66.8131 122.441 61.0225 122.401 55.2305 122.361C59.5588 122.249 63.8885 122.138 68.2167 122.027C75.3593 121.844 81.2029 121.629 81.2029 121.55C81.2029 121.502 81.2029 121.454 81.2029 121.406C81.5612 121.406 81.9194 121.406 82.2776 121.406C82.6359 121.406 82.9941 121.406 83.3524 121.406C90.3352 121.184 90.9829 121.053 92.4302 120.205C97.1969 117.412 97.8733 111.53 93.8638 107.726C91.6048 105.583 92.1156 105.626 68.8293 105.637C61.729 105.641 54.6287 105.644 47.5283 105.648C47.7125 105.371 55.9742 105.284 66.0071 105.276C72.0871 105.271 78.1679 105.266 84.248 105.261C84.8906 104.94 85.5333 104.619 86.176 104.297C87.4571 103.658 88.213 103.022 88.4279 102.405C88.6507 101.767 89.0011 101.484 89.5456 101.503C90.2363 101.526 90.333 101.354 90.3001 100.154C90.2628 98.812 90.2334 98.782 89.0462 98.9009C88.6414 98.9417 88.2352 98.9825 87.8304 99.0226C87.8024 98.3064 87.7745 97.5901 87.7465 96.8738C87.7 95.692 87.6255 94.3476 87.5803 93.8856C87.5244 93.3183 87.6677 93.0762 88.0224 93.1364C88.3111 93.1858 88.7883 93.1436 89.0842 93.0412C91.3941 92.2468 92.418 92.0391 94.0358 92.0391C95.0554 92.0391 95.8908 91.8794 95.8908 91.6846C95.8908 91.4561 89.0885 91.2641 76.904 91.1474C70.5746 91.0858 64.2467 91.0256 57.9173 90.9647C119.611 90.9647 115.76 91.1015 118.033 88.8288C119.814 87.0489 120.398 85.678 120.415 83.237C120.428 81.4235 120.249 80.7674 119.347 79.3083C118.751 78.345 117.569 77.0686 116.719 76.472C116.204 76.1103 115.689 75.7478 115.174 75.3861C103.84 75.356 92.5061 75.3267 81.1721 75.2966C69.8381 75.2665 58.5041 75.2371 47.1701 75.2071C84.8111 74.73 89.5958 74.5696 89.7111 74.2222C89.8057 73.9371 89.4904 73.7659 88.8449 73.7495C88.2868 73.7359 87.5079 73.5862 87.1139 73.4164C86.4705 73.1399 86.4633 73.1056 87.0487 73.0834C87.4993 73.0662 87.6391 72.8663 87.5044 72.4316C87.3561 71.9581 87.6785 71.6422 88.8227 71.138C90.1253 70.5643 90.2628 70.4053 89.8007 70.0049C89.5048 69.7485 88.8177 69.3359 88.2739 69.0873C87.5703 68.765 87.3431 68.452 87.4864 68.0001C87.5975 67.6505 87.4499 66.9035 87.1583 66.3398C86.3766 64.8285 86.8724 64.3228 88.9123 64.5527C90.3624 64.7153 90.6304 64.6465 90.7823 64.0664C90.879 63.6932 91.1821 63.3888 91.4543 63.3888C92.2117 63.3888 91.9071 63.1431 90.3839 62.5221C89.1945 62.0372 86.5378 61.947 71.7554 61.8918C53.5303 61.8231 56.2608 61.5802 79.6804 61.1885C86.0341 61.0817 91.2336 60.8883 91.2336 60.7587C91.2336 60.6806 91.2336 60.6018 91.2336 60.5238C93.6217 59.9887 94.9708 59.3584 95.7718 58.7783C99.5685 56.0293 99.6845 50.325 96.0133 46.844C93.7585 44.7059 94.5631 44.7661 68.1386 44.7661C60.0739 44.7661 52.0099 44.7661 43.9459 44.7661C79.0277 44.4746 87.6512 44.2705 87.6512 44.067C87.6512 43.8822 88.4172 43.6824 89.3529 43.6222C90.7615 43.5313 91.0617 43.3887 91.0982 42.7964C91.1491 41.9612 91.9573 40.2207 92.5162 39.7401C93.0506 39.2803 92.7017 37.2454 92.0884 37.2454C91.8154 37.2454 91.5861 37.5276 91.5783 37.8721C91.5661 38.4544 91.5095 38.4573 90.7808 37.9194C89.9984 37.3428 89.9827 37.2175 90.2901 34.081C90.3402 33.5696 90.0593 32.9987 89.5678 32.6112C88.3935 31.6887 89.1587 31.1572 91.6635 31.1572C92.8063 31.1572 93.7413 30.9975 93.7413 30.8027C93.7413 30.5742 86.8194 30.3822 74.3964 30.2655C67.948 30.2039 61.4997 30.1437 55.0514 30.0828C108.906 30.0828 109.94 30.0578 111.254 29.388C114.749 27.606 116.293 23.8793 115.198 19.8761C114.647 17.8599 111.921 15.2835 109.765 14.7413C108.562 14.4383 97.917 14.3252 70.6556 14.3252C58.1702 14.3252 45.6841 14.3252 33.1987 14.3252C72.057 14.0358 81.9194 13.8281 81.9194 13.6318C81.9194 13.4499 82.8408 13.0337 83.9678 12.7064C85.9919 12.1184 88.3677 10.2095 88.3677 9.17168C88.3677 8.92529 87.8941 8.19327 87.3152 7.54506C86.5443 6.68268 86.3473 6.20852 86.5801 5.77948C86.7549 5.45645 86.9985 4.41788 87.1211 3.47098C87.2429 2.52338 87.5438 1.67175 87.7895 1.57792C88.0353 1.48337 89.6359 1.31792 91.3468 1.20905C93.0578 1.10089 94.4578 0.866671 94.4578 0.688323C94.4578 0.502096 86.8352 0.287218 76.5458 0.181928C70.5746 0.121046 64.6049 0.060882 58.6338 9.78131e-08ZM136.323 51.0341C135.875 49.1174 134.489 47.1921 132.671 45.9587C131.187 44.9523 131.134 44.9445 124.691 44.8284C120.503 44.7525 117.647 44.8592 116.631 45.13C113.762 45.8942 110.923 49.6653 110.942 52.6865C110.952 54.1985 111.847 56.6023 112.884 57.9016C114.708 60.1871 115.985 60.5066 123.296 60.5137C126.843 60.5166 130.366 60.3476 131.126 60.1363C133.22 59.5554 135.547 57.2154 136.193 55.0415C136.792 53.0245 136.792 53.0339 136.323 51.0341ZM163.698 42.9755C163.587 42.6804 162.926 41.5515 162.23 40.4686C158.273 34.3087 156.051 31.2288 154.378 29.5922C153.347 28.5815 152.501 27.5845 152.498 27.3761C152.495 27.1676 151.858 26.523 151.082 25.9436C150.306 25.3641 149.596 24.6077 149.503 24.2632C149.411 23.9187 149.06 23.6365 148.723 23.6365C148.251 23.6365 148.169 23.8213 148.364 24.4423C148.505 24.8857 148.703 25.6929 148.806 26.2372C148.909 26.7816 149.135 27.3145 149.31 27.4226C149.484 27.5301 149.627 28.1726 149.627 28.8509C149.627 29.5993 149.904 30.36 150.333 30.7876C150.881 31.3363 151.026 31.9343 150.985 33.4829C150.954 34.6368 150.734 35.6374 150.459 35.8652C149.892 36.3357 149.841 37.3163 150.357 37.832C150.613 38.0884 150.607 38.5211 150.337 39.2323C150.121 39.7989 150.04 40.6397 150.157 41.1032C150.272 41.5651 150.265 42.4891 150.14 43.156C149.946 44.1945 149.751 44.3836 148.785 44.4775C147.846 44.5691 147.637 44.7568 147.541 45.5977C147.477 46.1528 147.579 47.0502 147.768 47.591C148.01 48.2829 147.967 48.9913 147.624 49.9833C147.305 50.9044 147.156 52.819 147.195 55.5157C147.242 58.7596 147.126 59.8999 146.649 60.8533C146.317 61.5208 146.044 62.3545 146.044 62.7069C146.044 63.0586 145.901 63.4354 145.726 63.5435C145.551 63.6517 145.296 64.1853 145.161 64.7282C145.025 65.2726 144.705 65.9587 144.45 66.2538C144.194 66.5489 143.795 67.3827 143.564 68.1054C143.332 68.8281 142.917 69.6059 142.643 69.8344C142.367 70.0615 141.88 71.0821 141.56 72.1006C141.24 73.1199 140.836 74.2759 140.662 74.6699C140.164 75.8008 139.598 78.1938 139.785 78.3808C139.879 78.4746 139.703 78.8306 139.395 79.1715C139.022 79.5827 138.962 79.8713 139.214 80.0275C139.815 80.3992 140.151 80.0232 141.195 77.8114C142.586 74.8618 142.759 74.551 145.187 70.6581C146.389 68.7278 148.066 66.021 148.912 64.6423C149.759 63.2635 151.556 60.6441 152.905 58.8219C154.255 56.9991 155.359 55.3861 155.359 55.2371C155.359 55.0881 155.681 54.7643 156.075 54.5187C156.469 54.273 156.792 53.8511 156.792 53.5811C156.792 53.3111 157.055 52.872 157.378 52.6048C157.887 52.1815 158.989 50.6709 160.195 48.7413C160.392 48.4262 160.651 48.0874 160.772 47.9893C160.891 47.8911 161.657 47.0345 162.473 46.0876C163.944 44.3786 164.088 44.0126 163.698 42.9755ZM161.745 121.818C161.287 121.645 159.822 121.244 158.49 120.926C155.743 120.271 152.336 118.784 151.168 117.729C150.734 117.337 150.147 117.107 149.863 117.216C149.575 117.326 148.971 117.016 148.506 116.522C148.044 116.031 147.1 115.366 146.408 115.045C145.716 114.724 145.02 114.25 144.862 113.994C144.705 113.737 144.342 113.527 144.056 113.527C143.77 113.527 143.537 113.28 143.537 112.979C143.537 112.677 143.254 112.324 142.91 112.195C142.565 112.066 142.095 111.708 141.864 111.401C141.634 111.094 141.334 110.953 141.198 111.089C141.062 111.225 141.45 112.077 142.061 112.981C143.018 114.4 143.11 114.725 142.726 115.363C142.343 116.002 142.393 116.177 143.089 116.649C143.539 116.954 143.895 117.565 143.895 118.033C143.895 118.879 145.512 120.689 146.268 120.689C146.494 120.689 146.925 121.066 147.227 121.526C147.755 122.333 147.706 122.43 145.879 124.193C144.591 125.437 143.909 126.414 143.754 127.239C143.628 127.907 143.125 128.83 142.636 129.29C142.146 129.749 141.746 130.307 141.746 130.529C141.746 130.752 141.253 131.604 140.65 132.424C139.307 134.25 138.844 135.75 139.222 137.063C139.481 137.964 139.532 137.991 139.759 137.342C141.417 132.637 144.682 128.448 147.924 126.871C150.641 125.549 158.068 123.481 161.421 123.113C162.586 122.984 162.781 122.208 161.745 121.818Z" fill="#F58A35"/>
<path d="M33.1986 14.3252C19.8291 14.3101 18.874 14.2306 17.4726 13.5953C14.7707 12.3691 13.3972 10.2224 13.3535 7.15971C13.317 4.58477 14.6554 2.19032 16.8499 0.904634C17.3644 0.603806 17.8795 0.301544 18.3947 0C25.1009 0 31.8079 0 38.5142 0C45.2204 0 51.9267 0 58.6336 0C64.6048 0.0608819 70.5745 0.121046 76.5456 0.181928C86.835 0.287218 94.4577 0.502096 94.4577 0.688323C94.4577 0.866671 93.0576 1.10089 91.3467 1.20905C89.6357 1.31792 88.0351 1.48337 87.7894 1.57792C87.5436 1.67175 87.2427 2.52338 87.1209 3.47099C86.9984 4.41788 86.7548 5.45645 86.58 5.77948C86.3471 6.20852 86.5441 6.68268 87.3151 7.54506C87.894 8.19327 88.3676 8.92529 88.3676 9.17168C88.3676 10.2095 85.9917 12.1184 83.9677 12.7064C82.8406 13.0337 81.9192 13.4499 81.9192 13.6318C81.9192 13.8281 72.0569 14.0358 33.1986 14.3252Z" fill="#EE5F04"/>
<path d="M51.1106 196.613C16.9287 196.613 18.098 196.676 15.9164 194.726C12.0796 191.297 13.807 184.045 18.7909 182.661C19.6156 182.432 26.2315 182.291 36.1541 182.29C41.4983 182.289 46.8411 182.288 52.1853 182.288C58.6874 182.348 65.1887 182.409 71.6901 182.47C83.5399 182.581 91.2779 182.787 91.4076 182.995C91.5244 183.184 91.2908 183.544 90.8889 183.795C90.4877 184.045 90.1588 184.454 90.1588 184.701C90.1588 184.95 89.936 185.153 89.663 185.153C89.0404 185.153 88.7172 186.302 89.1328 187.043C89.3183 187.375 89.294 188.003 89.0719 188.586C88.867 189.127 88.8369 189.664 89.0067 189.779C89.1765 189.894 89.4151 190.258 89.5376 190.59C89.6701 190.95 90.2369 191.238 90.944 191.306C91.8576 191.394 92.1556 191.605 92.2437 192.226C92.3068 192.668 92.1857 193.031 91.9751 193.031C91.7644 193.031 91.5917 193.322 91.5917 193.676C91.5917 194.031 91.3983 194.514 91.1618 194.75C90.8272 195.084 90.9075 195.18 91.5201 195.18C91.9801 195.18 92.3082 195.403 92.3082 195.715C92.3082 196.18 89.6494 196.272 51.1106 196.613Z" fill="#EE5F04"/>
<path d="M155.359 84.5184C159.656 75.1641 162.513 70.0399 166.918 63.7949C170.961 58.0613 177.196 51.0892 181.532 47.452C182.941 46.2702 184.679 44.7919 185.396 44.1659C186.112 43.5398 186.748 43.0786 186.81 43.1409C186.872 43.2018 186.341 44.9208 185.631 46.9593C181.043 60.1398 181.614 70.3365 187.368 77.9396C190.422 81.9764 194.489 85.3879 203.094 91.1366C204.617 92.1537 206.139 93.1708 207.662 94.1879C207.471 94.1879 207.281 94.1879 207.09 94.1879C206.775 94.1879 206.01 93.8254 205.388 93.3821C204.766 92.9387 203.46 92.1737 202.484 91.681C199.793 90.3222 199.422 90.0995 199.422 89.8373C199.422 89.7041 198.737 89.2471 197.9 88.8202C197.062 88.394 196.136 87.8239 195.84 87.5532C195.544 87.2817 194.415 86.3814 193.332 85.5519C191.048 83.8028 187.471 80.0883 186.82 78.7883C186.574 78.2955 186.112 77.4905 185.793 76.9977C185.475 76.5049 184.841 75.1354 184.383 73.9536C183.926 72.7718 183.334 71.5692 183.069 71.2805C182.652 70.8286 182.585 70.8801 182.585 71.6565C182.585 72.1515 182.402 72.7395 182.179 72.963C181.939 73.2022 181.889 73.6348 182.056 74.0188C182.212 74.3769 182.308 74.8697 182.268 75.1132C182.229 75.3574 182.394 75.9219 182.635 76.3667C182.876 76.8129 183.126 77.6452 183.19 78.2182C183.255 78.7912 183.446 79.4358 183.615 79.6507C184.262 80.473 184.412 83.7391 183.863 85.052C183.57 85.7546 183.241 87.3318 183.133 88.5574C183.025 89.7829 182.848 91.2132 182.74 91.7361C182.631 92.2597 182.709 92.7897 182.91 92.9144C183.112 93.0397 183.186 93.5991 183.074 94.1578C182.96 94.7322 183.043 95.2816 183.266 95.4191C183.482 95.553 183.662 95.9355 183.666 96.2686C183.67 96.6009 184.098 97.2764 184.619 97.7691C185.14 98.2619 185.822 99.0727 186.135 99.5705C186.448 100.068 187.481 101.555 188.431 102.874C190.18 105.302 190.962 106.601 193.017 110.483C193.396 111.199 193.775 111.915 194.154 112.631C194.822 112.309 195.492 111.987 196.161 111.665C197.266 111.133 198.128 110.851 197.989 111.378C197.392 111.617 196.796 111.855 196.198 112.094C196.079 112.213 195.959 112.334 195.84 112.452C193.88 113.252 193.794 113.21 193.344 112.123C192.447 109.96 188.327 103.413 186.313 100.952C179.989 93.2245 170.304 87.9829 159.493 86.4372C155.919 85.9258 155.359 85.7561 155.359 85.1824C155.359 84.961 155.359 84.7397 155.359 84.5184ZM163.527 81.3676C163.29 81.1305 162.887 80.9371 162.631 80.9371C162.375 80.9371 162.165 80.69 162.165 80.387C162.165 80.0847 161.919 79.4609 161.616 79.0003C160.986 78.0377 161.227 75.4792 162.01 74.8296C162.268 74.6147 162.405 74.2387 162.31 73.9944C162.217 73.7502 162.468 73.2538 162.87 72.8907C163.614 72.2167 163.838 71.1 163.297 70.7648C162.826 70.4747 158.564 78.3535 156.666 83.0221C155.64 85.5469 155.505 85.3707 158.905 85.9609C160.576 86.2524 161.262 86.2532 161.44 85.9638C161.575 85.746 161.929 85.6615 162.226 85.7761C162.523 85.8907 162.97 85.7396 163.217 85.4409C163.845 84.6845 164.057 81.8976 163.527 81.3676ZM179.869 51.0333C179.599 51.6242 179.374 52.2094 179.369 52.3326C179.352 52.7817 180.439 53.4371 180.904 53.258C181.168 53.157 181.581 53.3927 181.825 53.7823C182.399 54.7027 183.163 54.1276 183.486 52.5303C183.613 51.9036 184.057 50.3078 184.473 48.9827C184.888 47.6569 185.127 46.4722 185.004 46.3483C184.61 45.9558 182.764 46.7752 182.759 47.3453C182.75 48.1647 181.886 49.0479 181.307 48.8258C181.012 48.7127 180.708 48.9089 180.58 49.295C180.46 49.6603 180.14 50.4424 179.869 51.0333Z" fill="#EE782A"/>
<path d="M45.3788 136.089C11.7386 136.089 6.20524 135.972 5.13123 135.651C3.0821 135.037 0.772877 132.718 0.244831 130.743C-0.638589 127.442 0.926923 123.937 4.00206 122.332C5.4257 121.59 5.68578 121.584 43.3189 121.495C55.9469 121.466 68.5749 121.435 81.2028 121.406C81.2028 121.454 81.2028 121.502 81.2028 121.55C81.2028 121.629 75.3592 121.844 68.2166 122.027C63.8884 122.138 59.5587 122.249 55.2304 122.361C61.0224 122.401 66.813 122.441 72.6051 122.48C72.3006 122.548 71.9953 122.616 71.6908 122.685C71.1879 122.797 70.6405 123.247 70.4743 123.685C70.308 124.122 69.9132 124.694 69.5973 124.956C69.2813 125.218 69.0227 125.818 69.0227 126.289C69.0227 126.76 68.8213 127.475 68.5749 127.878C68.2066 128.482 68.2216 128.687 68.6644 129.038C69.2605 129.51 69.3429 130.282 68.8765 131.028C68.7074 131.297 68.4473 132.063 68.2961 132.729C68.0504 133.82 68.1013 133.94 68.8091 133.94C69.2419 133.94 69.7893 134.133 70.025 134.369C70.2614 134.606 70.9392 135.009 72.6051 135.731C63.5301 135.85 54.4537 135.97 45.3788 136.089Z" fill="#EE5F04"/>
<path d="M43.9458 44.7662C38.1796 44.7662 35.5494 42.9397 35.1073 38.6271C34.7111 34.7543 36.6822 31.3571 39.8347 30.4826C40.6457 30.2569 44.2296 30.0865 48.1552 30.085C50.4543 30.0843 52.7521 30.0836 55.0513 30.0829C61.4996 30.1438 67.9479 30.2039 74.3963 30.2655C86.8193 30.3823 93.7412 30.5742 93.7412 30.8027C93.7412 30.9976 92.8062 31.1573 91.6634 31.1573C89.1586 31.1573 88.3934 31.6887 89.5677 32.6113C90.0592 32.9988 90.3401 33.5696 90.29 34.081C89.9826 37.2175 89.9983 37.3429 90.7807 37.9195C91.5094 38.4574 91.566 38.4545 91.5782 37.8722C91.586 37.5277 91.8153 37.2455 92.0883 37.2455C92.7016 37.2455 93.0505 39.2804 92.5161 39.7402C91.9572 40.2208 91.149 41.9613 91.0981 42.7965C91.0616 43.3888 90.7614 43.5313 89.3528 43.6223C88.4171 43.6825 87.6511 43.8823 87.6511 44.0671C87.6511 44.2705 79.0276 44.4747 43.9458 44.7662Z" fill="#EE782A"/>
<path d="M47.17 75.2071C41.201 75.2035 38.8595 75.0338 38.1144 74.8275C36.5639 74.397 34.4732 72.693 33.7281 71.2519C31.881 67.6821 33.2652 63.4447 36.9157 61.4929C37.4079 61.23 37.9002 60.9665 38.3931 60.7029C47.1994 60.6728 56.0071 60.6434 64.8133 60.6133C73.6196 60.5833 82.4273 60.5539 91.2335 60.5238C91.2335 60.6019 91.2335 60.6807 91.2335 60.7587C91.2335 60.8884 86.034 61.0818 79.6803 61.1885C56.2607 61.5803 53.5302 61.8231 71.7553 61.8919C86.5377 61.947 89.1944 62.0373 90.3838 62.5222C91.907 63.1432 92.2115 63.3888 91.4542 63.3888C91.182 63.3888 90.8789 63.6932 90.7821 64.0664C90.6303 64.6466 90.3623 64.7153 88.9121 64.5528C86.8723 64.3228 86.3765 64.8285 87.1582 66.3398C87.4498 66.9035 87.5974 67.6506 87.4863 68.0001C87.343 68.4521 87.5702 68.7651 88.2737 69.0874C88.8176 69.3359 89.5047 69.7485 89.8006 70.0049C90.2627 70.4053 90.1251 70.5643 88.8226 71.138C87.6784 71.6423 87.356 71.9581 87.5043 72.4316C87.639 72.8664 87.4992 73.0662 87.0486 73.0834C86.4632 73.1056 86.4704 73.14 87.1138 73.4164C87.5078 73.5862 88.2866 73.7359 88.8448 73.7495C89.4903 73.766 89.8056 73.9372 89.711 74.2222C89.5957 74.5696 84.811 74.7301 47.17 75.2071Z" fill="#EE782A"/>
<path d="M47.5282 105.648C42.8969 105.437 41.1644 105.176 40.6894 104.932C36.9702 103.018 35.6003 98.6996 37.5075 94.9041C39.1447 91.6466 40.5741 91.2133 50.1255 91.0765C52.7227 91.0392 55.32 91.002 57.9172 90.9647C64.2466 91.0256 70.5745 91.0858 76.9039 91.1474C89.0884 91.2641 95.8907 91.4561 95.8907 91.6846C95.8907 91.8794 95.0553 92.0391 94.0357 92.0391C92.4179 92.0391 91.394 92.2468 89.0841 93.0412C88.7882 93.1436 88.311 93.1858 88.0223 93.1364C87.6676 93.0762 87.5243 93.3183 87.5802 93.8856C87.6254 94.3476 87.6999 95.692 87.7464 96.8738C87.7744 97.5901 87.8023 98.3064 87.8303 99.0226C88.2351 98.9825 88.6413 98.9417 89.0461 98.9009C90.2333 98.782 90.2627 98.812 90.3 100.154C90.3329 101.354 90.2362 101.526 89.5455 101.503C89.001 101.484 88.6506 101.767 88.4278 102.405C88.2129 103.022 87.457 103.658 86.1759 104.297C85.5332 104.619 84.8905 104.94 84.2479 105.261C78.1678 105.266 72.087 105.271 66.007 105.276C55.9741 105.284 47.7124 105.371 47.5282 105.648Z" fill="#EE782A"/>
<path d="M207.662 94.1879C213.299 97.156 214.11 97.8157 214.11 99.4359C214.11 100.665 213.652 101.86 212.889 102.621C211.569 103.938 206.989 106.707 200.945 109.844C199.959 110.355 198.974 110.867 197.989 111.378C198.128 110.851 197.265 111.133 196.161 111.665C195.491 111.987 194.822 112.309 194.154 112.631C193.775 111.915 193.396 111.199 193.017 110.483C190.962 106.601 190.179 105.302 188.431 102.874C187.481 101.555 186.448 100.068 186.135 99.5705C185.822 99.0727 185.14 98.2619 184.619 97.7691C184.098 97.2764 183.669 96.6009 183.666 96.2686C183.662 95.9355 183.482 95.553 183.265 95.4191C183.043 95.2816 182.96 94.7322 183.074 94.1578C183.186 93.5991 183.112 93.0397 182.91 92.9143C182.709 92.7897 182.631 92.2597 182.739 91.7361C182.848 91.2132 183.025 89.7829 183.133 88.5574C183.241 87.3318 183.57 85.7546 183.863 85.052C184.412 83.7391 184.262 80.4729 183.615 79.6507C183.446 79.4358 183.255 78.7912 183.19 78.2182C183.126 77.6452 182.876 76.8129 182.635 76.3666C182.394 75.9219 182.229 75.3574 182.268 75.1132C182.307 74.8697 182.212 74.3769 182.056 74.0188C181.889 73.6348 181.939 73.2022 182.178 72.963C182.402 72.7395 182.585 72.1515 182.585 71.6565C182.585 70.8801 182.651 70.8285 183.068 71.2805C183.334 71.5692 183.926 72.7718 184.383 73.9536C184.841 75.1354 185.475 76.5049 185.793 76.9977C186.112 77.4905 186.573 78.2955 186.82 78.7883C187.47 80.0883 191.048 83.8028 193.332 85.5519C194.415 86.3814 195.544 87.2817 195.84 87.5532C196.135 87.8239 197.062 88.394 197.899 88.8202C198.737 89.2471 199.422 89.7041 199.422 89.8373C199.422 90.0995 199.793 90.3222 202.484 91.681C203.459 92.1737 204.766 92.9387 205.388 93.3821C206.01 93.8254 206.775 94.1879 207.09 94.1879C207.28 94.1879 207.471 94.1879 207.662 94.1879Z" fill="#F58A35"/>
<path d="M184.734 195.18C185.869 195.717 187.003 196.255 188.137 196.792C187.212 196.821 186.286 196.852 185.361 196.881C184.436 196.911 183.51 196.941 182.585 196.971C177.635 196.91 172.686 196.848 167.736 196.788C158.537 196.674 152.805 196.47 152.669 196.251C152.549 196.056 152.066 195.896 151.597 195.896C151.128 195.896 150.644 195.735 150.522 195.538C150.4 195.341 149.604 195.005 148.752 194.79C147.548 194.487 146.996 194.082 146.266 192.966C145.749 192.178 145.426 191.372 145.548 191.175C145.669 190.979 145.844 189.805 145.935 188.567C146.094 186.409 146.14 186.317 147.057 186.314C147.982 186.312 147.993 186.289 147.388 185.615C147.043 185.231 146.747 184.446 146.731 183.871C146.702 182.886 146.666 182.861 146.115 183.451C144.783 184.878 144.128 183.724 145.13 181.716C145.415 181.144 145.894 179.731 146.196 178.574C146.497 177.418 146.909 176.273 147.112 176.029C147.672 175.354 147.125 173.269 146.334 173.062C145.38 172.813 144.673 171.244 144.8 169.664C144.894 168.518 144.803 168.321 144.185 168.321C143.668 168.321 143.523 168.157 143.68 167.748C143.81 167.408 143.534 166.743 143.001 166.109C142.508 165.523 142.104 164.743 142.104 164.378C142.104 164.013 141.62 163.369 141.029 162.949C140.077 162.272 139.954 161.976 139.954 160.373C139.954 158.805 140.026 158.623 140.491 159.009C140.787 159.254 141.029 159.918 141.029 160.485C141.029 161.172 141.212 161.516 141.577 161.516C141.879 161.516 142.227 161.798 142.351 162.143C142.61 162.868 145.628 166.571 146.304 166.995C146.556 167.153 146.761 167.495 146.761 167.756C146.761 168.655 155.529 176.886 159.301 179.528C159.711 179.814 159.998 180.261 159.941 180.521C159.879 180.801 160.276 181.077 160.911 181.197C161.502 181.308 161.986 181.609 161.986 181.866C161.986 182.123 162.47 182.604 163.061 182.936C163.652 183.269 164.269 183.751 164.433 184.008C164.744 184.497 166.44 185.313 166.923 185.206C167.077 185.173 168.125 185.738 169.252 186.465C174.95 190.134 183.914 195.18 184.734 195.18Z" fill="#FB9B41"/>
<path d="M163.698 42.9754C164.088 44.0126 163.944 44.3786 162.473 46.0876C161.657 47.0345 160.891 47.8911 160.772 47.9892C160.651 48.0874 160.392 48.4262 160.195 48.7413C158.989 50.6709 157.887 52.1815 157.378 52.6048C157.055 52.872 156.792 53.311 156.792 53.5811C156.792 53.8511 156.469 54.273 156.075 54.5186C155.681 54.7643 155.359 55.0881 155.359 55.2371C155.359 55.386 154.255 56.999 152.905 58.8219C151.556 60.6441 149.759 63.2634 148.913 64.6422C148.066 66.021 146.389 68.7278 145.187 70.6581C142.759 74.5509 142.586 74.8618 141.195 77.8113C140.151 80.0231 139.815 80.3992 139.214 80.0274C138.962 79.8713 139.022 79.5826 139.395 79.1715C139.703 78.8306 139.879 78.4746 139.785 78.3808C139.598 78.1938 140.164 75.8008 140.662 74.6698C140.836 74.2759 141.24 73.1198 141.56 72.1006C141.88 71.0821 142.367 70.0614 142.643 69.8344C142.917 69.6059 143.332 68.828 143.564 68.1053C143.795 67.3826 144.194 66.5489 144.45 66.2538C144.705 65.9587 145.025 65.2725 145.161 64.7282C145.296 64.1853 145.551 63.6516 145.726 63.5435C145.901 63.4353 146.044 63.0586 146.044 62.7069C146.044 62.3545 146.317 61.5208 146.649 60.8532C147.126 59.8999 147.242 58.7596 147.195 55.5157C147.156 52.819 147.305 50.9044 147.624 49.9833C147.967 48.9913 148.01 48.2829 147.768 47.591C147.579 47.0502 147.477 46.1527 147.541 45.5976C147.637 44.7568 147.846 44.5691 148.785 44.4774C149.752 44.3836 149.946 44.1945 150.14 43.1559C150.265 42.4891 150.272 41.5651 150.157 41.1031C150.04 40.6397 150.121 39.7988 150.337 39.2323C150.607 38.521 150.613 38.0884 150.357 37.832C149.841 37.3163 149.892 36.3357 150.459 35.8651C150.734 35.6374 150.954 34.6368 150.985 33.4829C151.026 31.9343 150.881 31.3362 150.333 30.7876C149.904 30.36 149.627 29.5993 149.627 28.8508C149.627 28.1725 149.484 27.53 149.31 27.4226C149.135 27.3145 148.909 26.7816 148.806 26.2372C148.703 25.6928 148.505 24.8856 148.364 24.4423C148.169 23.8213 148.251 23.6365 148.723 23.6365C149.06 23.6365 149.411 23.9187 149.503 24.2632C149.596 24.6077 150.306 25.3641 151.082 25.9435C151.858 26.523 152.495 27.1676 152.498 27.3761C152.501 27.5845 153.347 28.5815 154.379 29.5922C156.051 31.2288 158.273 34.3087 162.23 40.4685C162.926 41.5515 163.587 42.6803 163.698 42.9754Z" fill="#FB9B41"/>
<path d="M61.1414 161.874C60.0129 158.899 60.6871 155.636 62.7721 153.977C63.0651 153.744 63.3567 153.512 63.649 153.279C64.0968 153.133 64.5446 152.986 64.9924 152.84C66.6196 152.308 94.4577 151.971 94.4577 152.482C94.4577 152.66 93.6918 152.829 92.7561 152.858C89.9439 152.945 88.4658 153.294 87.8066 154.021C87.2026 154.689 87.2184 154.712 88.268 154.712C89.9539 154.712 90.2684 155.407 90.2584 159.111C90.2534 161.011 90.421 162.636 90.6525 162.941C90.972 163.363 90.8839 163.547 90.2204 163.837C89.3943 164.199 89.3929 164.213 90.0413 165.186C90.2591 165.514 90.4777 165.842 90.6962 166.17C86.8157 166.17 82.9338 166.17 79.0534 166.169C71.7374 166.168 66.8782 166.022 65.9776 165.776C65.0455 165.521 63.9507 164.772 61.1414 161.874Z" fill="#EE782A"/>
<path d="M72.6052 135.731C70.9393 135.009 70.2615 134.606 70.0251 134.369C69.7894 134.133 69.242 133.94 68.8092 133.94C68.1014 133.94 68.0505 133.82 68.2962 132.729C68.4474 132.063 68.7075 131.297 68.8766 131.028C69.343 130.282 69.2606 129.51 68.6645 129.038C68.2217 128.687 68.2067 128.482 68.575 127.878C68.8214 127.475 69.0228 126.76 69.0228 126.289C69.0228 125.819 69.2814 125.218 69.5974 124.956C69.9133 124.694 70.3081 124.122 70.4743 123.685C70.6406 123.247 71.188 122.797 71.6909 122.685C71.9954 122.616 72.3007 122.548 72.6052 122.48C75.3579 122.451 78.1106 122.42 80.8633 122.391C88.8943 122.303 89.1164 122.32 88.9388 122.999C88.8377 123.383 88.9509 123.946 89.1888 124.249C89.5528 124.714 89.4217 124.885 88.3677 125.326C86.5651 126.079 86.2183 126.404 86.2183 127.341C86.2183 127.799 86.4196 128.303 86.6661 128.461C86.9126 128.618 87.3274 129.127 87.5889 129.591C88.0066 130.335 87.9737 130.531 87.3095 131.237C86.8445 131.731 86.6453 132.27 86.7886 132.644C86.9276 133.005 86.7521 133.548 86.3544 133.988C85.6881 134.724 85.691 134.725 88.1019 134.919C89.4303 135.025 90.5172 135.252 90.5172 135.421C90.5172 135.592 86.487 135.731 72.6052 135.731Z" fill="#EE782A"/>
<path d="M161.745 121.817C162.781 122.208 162.586 122.984 161.421 123.112C158.068 123.481 150.641 125.548 147.924 126.871C144.682 128.448 141.417 132.637 139.759 137.342C139.532 137.991 139.481 137.964 139.222 137.063C138.844 135.75 139.307 134.25 140.65 132.424C141.253 131.604 141.746 130.752 141.746 130.529C141.746 130.307 142.146 129.749 142.636 129.289C143.125 128.83 143.628 127.907 143.754 127.239C143.909 126.414 144.591 125.437 145.879 124.193C147.706 122.43 147.755 122.332 147.227 121.526C146.925 121.066 146.494 120.689 146.268 120.689C145.512 120.689 143.895 118.879 143.895 118.033C143.895 117.565 143.539 116.954 143.089 116.649C142.393 116.177 142.343 116.001 142.726 115.363C143.11 114.725 143.018 114.4 142.061 112.981C141.45 112.077 141.062 111.225 141.198 111.089C141.334 110.953 141.634 111.094 141.864 111.401C142.095 111.708 142.565 112.066 142.91 112.195C143.254 112.324 143.537 112.677 143.537 112.979C143.537 113.28 143.77 113.527 144.056 113.527C144.342 113.527 144.705 113.737 144.862 113.994C145.02 114.25 145.716 114.724 146.408 115.045C147.1 115.366 148.044 116.031 148.506 116.522C148.971 117.016 149.575 117.326 149.863 117.216C150.147 117.107 150.734 117.337 151.168 117.729C152.336 118.784 155.743 120.271 158.49 120.926C159.822 121.244 161.287 121.645 161.745 121.817Z" fill="#FB9B41"/>
<path d="M163.527 81.3676C164.057 81.8977 163.845 84.6846 163.217 85.441C162.97 85.7397 162.523 85.8908 162.226 85.7762C161.929 85.6616 161.575 85.7461 161.44 85.9639C161.262 86.2532 160.576 86.2525 158.904 85.961C155.505 85.3708 155.639 85.547 156.666 83.0222C158.564 78.3536 162.826 70.4748 163.296 70.7649C163.838 71.1001 163.614 72.2167 162.869 72.8907C162.468 73.2539 162.217 73.7502 162.31 73.9945C162.404 74.2387 162.268 74.6148 162.01 74.8296C161.226 75.4793 160.986 78.0378 161.616 79.0004C161.919 79.461 162.165 80.0848 162.165 80.3871C162.165 80.69 162.375 80.9372 162.631 80.9372C162.887 80.9372 163.29 81.1305 163.527 81.3676Z" fill="#EE5F04"/>
<path d="M179.869 51.0333C180.14 50.4424 180.46 49.6603 180.58 49.295C180.708 48.9089 181.012 48.7127 181.307 48.8258C181.886 49.0479 182.75 48.1647 182.759 47.3453C182.764 46.7752 184.61 45.9558 185.004 46.3483C185.127 46.4722 184.888 47.6569 184.473 48.9827C184.057 50.3078 183.613 51.9036 183.486 52.5303C183.163 54.1276 182.399 54.7027 181.825 53.7823C181.581 53.3927 181.168 53.157 180.904 53.258C180.439 53.4371 179.352 52.7817 179.369 52.3326C179.374 52.2094 179.599 51.6242 179.869 51.0333Z" fill="#F58A35"/>
</svg>
